# xmcd
#
# Track frame offsets:
#	150
#	23937
#	42365
#	60922
#	84813
#	102184
#	123343
#	136717
#	149984
#	165517
#	182233
#	200729
#	228589
#
# Disc length: 3406 seconds
#
# Revision: 0
# Processed by: cddbd v1.5.2PL0 Copyright (c) Steve Scherf et al.
# Submitted via: audiograbber 1.83.01
#
DISCID=b00d4c0d
DTITLE=Maat Höösch - Volume 2
DYEAR=2018
DGENRE=Kölsch Blues
TTITLE0=Dude Facebooch Jass
TTITLE1=Maat Höösch
TTITLE2=Jedrisse Dresde'
TTITLE3=Rään Rään Rään
TTITLE4=Ze Vill Jepäck
TTITLE5=Süüs Us Wie Rään
TTITLE6=Kei Minsch
TTITLE7=Ohn Wiever Bessser Dran
TTITLE8=Do Kanns Nix Dofür
TTITLE9=Büb Klütsch
TTITLE10=Weihnachtskaat Vun Nem Flittche Vum Eijelstein
TTITLE11=Marita
TTITLE12=Wärm Bier Un' Köhl Wiever
EXTD=
EXTT0=
EXTT1=
EXTT2=
EXTT3=
EXTT4=
EXTT5=
EXTT6=
EXTT7=
EXTT8=
EXTT9=
EXTT10=
EXTT11=
EXTT12=
PLAYORDER=
